<svg width="181" height="32" viewBox="0 0 181 32" fill="none" xmlns="http://www.w3.org/2000/svg">
<path d="M4.504 21.7045H4.744C4.784 21.8645 4.896 22.0285 5.08 22.1965C5.256 22.3565 5.536 22.5365 5.92 22.7365L10.612 25.1005V25.4245L5.428 28.2325C5.14 28.3925 4.956 28.5285 4.876 28.6405C4.796 28.7445 4.756 28.8405 4.756 28.9285H4.504C4.512 28.7525 4.52 28.5685 4.528 28.3765C4.536 28.1845 4.54 27.9765 4.54 27.7525C4.54 27.4645 4.54 27.1525 4.54 26.8165C4.532 26.4805 4.52 26.1685 4.504 25.8805H4.756C4.756 26.0805 4.776 26.2605 4.816 26.4205C4.856 26.5725 4.936 26.6765 5.056 26.7325C5.168 26.7805 5.332 26.7485 5.548 26.6365L9.352 24.6565L9.556 24.8485L6.616 23.3725C6.128 23.1245 5.752 23.0005 5.488 23.0005C5.216 22.9925 5.028 23.0805 4.924 23.2645C4.812 23.4405 4.752 23.6965 4.744 24.0325H4.504C4.512 23.7845 4.52 23.5405 4.528 23.3005C4.536 23.0605 4.54 22.8325 4.54 22.6165C4.54 22.4165 4.536 22.2445 4.528 22.1005C4.52 21.9565 4.512 21.8245 4.504 21.7045ZM9.136 24.4645H11.728C12.016 24.4645 12.232 24.4405 12.376 24.3925C12.52 24.3445 12.616 24.2525 12.664 24.1165C12.712 23.9805 12.744 23.7805 12.76 23.5165H13C12.984 23.7085 12.976 23.9525 12.976 24.2485C12.968 24.5445 12.964 24.8445 12.964 25.1485C12.964 25.4765 12.968 25.7885 12.976 26.0845C12.976 26.3805 12.984 26.6165 13 26.7925H12.76C12.744 26.5205 12.712 26.3165 12.664 26.1805C12.616 26.0445 12.52 25.9565 12.376 25.9165C12.232 25.8685 12.016 25.8445 11.728 25.8445H9.268L10.012 25.0645L9.136 24.4645ZM13.084 19.8543C13.084 20.1903 13.02 20.4783 12.892 20.7183C12.764 20.9583 12.588 21.1383 12.364 21.2583C12.14 21.3783 11.884 21.4383 11.596 21.4383C11.244 21.4383 10.96 21.3583 10.744 21.1983C10.52 21.0383 10.34 20.8343 10.204 20.5863C10.068 20.3303 9.956 20.0623 9.868 19.7823C9.772 19.4943 9.684 19.2263 9.604 18.9783C9.516 18.7223 9.416 18.5143 9.304 18.3543C9.192 18.1863 9.044 18.1023 8.86 18.1023H8.044C7.756 18.1023 7.528 18.1503 7.36 18.2463C7.184 18.3343 7.06 18.4583 6.988 18.6183C6.916 18.7703 6.88 18.9543 6.88 19.1703C6.88 19.3543 6.908 19.5503 6.964 19.7583C7.012 19.9663 7.112 20.1303 7.264 20.2503C7.312 20.0743 7.408 19.9303 7.552 19.8183C7.688 19.6983 7.86 19.6383 8.068 19.6383C8.292 19.6383 8.468 19.7143 8.596 19.8663C8.724 20.0103 8.788 20.1943 8.788 20.4183C8.788 20.6663 8.712 20.8503 8.56 20.9703C8.4 21.0903 8.216 21.1503 8.008 21.1503C7.792 21.1503 7.616 21.0983 7.48 20.9943C7.344 20.8823 7.216 20.7383 7.096 20.5623C6.968 20.3703 6.86 20.1263 6.772 19.8303C6.684 19.5263 6.64 19.1903 6.64 18.8223C6.64 18.4783 6.68 18.1823 6.76 17.9343C6.832 17.6783 6.952 17.4663 7.12 17.2983C7.304 17.0983 7.536 16.9663 7.816 16.9023C8.088 16.8383 8.42 16.8063 8.812 16.8063H12.124C12.324 16.8063 12.468 16.7823 12.556 16.7343C12.636 16.6783 12.676 16.5903 12.676 16.4703C12.676 16.3903 12.656 16.3143 12.616 16.2423C12.576 16.1623 12.516 16.0703 12.436 15.9663L12.64 15.8463C12.776 16.0143 12.884 16.1863 12.964 16.3623C13.044 16.5303 13.084 16.7463 13.084 17.0103C13.084 17.2663 13.044 17.4743 12.964 17.6343C12.884 17.7943 12.768 17.9143 12.616 17.9943C12.464 18.0663 12.276 18.1023 12.052 18.1023C12.388 18.3103 12.644 18.5583 12.82 18.8463C12.996 19.1343 13.084 19.4703 13.084 19.8543ZM12.508 19.2783C12.508 19.0543 12.444 18.8463 12.316 18.6543C12.188 18.4543 11.996 18.2703 11.74 18.1023H9.352C9.48 18.1903 9.592 18.3183 9.688 18.4863C9.776 18.6543 9.868 18.8343 9.964 19.0263C10.06 19.2183 10.172 19.4023 10.3 19.5783C10.42 19.7463 10.576 19.8863 10.768 19.9983C10.96 20.1103 11.204 20.1663 11.5 20.1663C11.812 20.1663 12.06 20.0863 12.244 19.9263C12.42 19.7663 12.508 19.5503 12.508 19.2783ZM6.64 11.8397C6.64 11.5677 6.676 11.3077 6.748 11.0597C6.812 10.8117 6.904 10.5957 7.024 10.4117C7.144 10.2197 7.288 10.0757 7.456 9.97972C7.624 9.87572 7.808 9.82372 8.008 9.82372C8.248 9.82372 8.436 9.89172 8.572 10.0277C8.708 10.1637 8.776 10.3397 8.776 10.5557C8.776 10.7717 8.716 10.9517 8.596 11.0957C8.476 11.2397 8.304 11.3117 8.08 11.3117C7.872 11.3117 7.704 11.2517 7.576 11.1317C7.44 11.0117 7.352 10.8717 7.312 10.7117C7.192 10.7837 7.092 10.9117 7.012 11.0957C6.924 11.2717 6.88 11.4637 6.88 11.6717C6.88 11.8877 6.936 12.0957 7.048 12.2957C7.16 12.4877 7.332 12.6597 7.564 12.8117C7.796 12.9637 8.096 13.0877 8.464 13.1837C8.832 13.2717 9.276 13.3157 9.796 13.3157C10.468 13.3157 11.004 13.2397 11.404 13.0877C11.796 12.9277 12.076 12.7197 12.244 12.4637C12.412 12.2077 12.496 11.9317 12.496 11.6357C12.496 11.4437 12.46 11.2477 12.388 11.0477C12.316 10.8397 12.196 10.6437 12.028 10.4597C11.86 10.2677 11.632 10.0997 11.344 9.95572L11.428 9.72772C11.692 9.81572 11.96 9.95572 12.232 10.1477C12.504 10.3317 12.728 10.5757 12.904 10.8797C13.08 11.1837 13.168 11.5557 13.168 11.9957C13.168 12.4997 13.044 12.9557 12.796 13.3637C12.548 13.7717 12.188 14.0957 11.716 14.3357C11.236 14.5757 10.652 14.6957 9.964 14.6957C9.292 14.6957 8.708 14.5757 8.212 14.3357C7.708 14.0877 7.32 13.7477 7.048 13.3157C6.776 12.8837 6.64 12.3917 6.64 11.8397ZM6.64 5.36863C6.64 5.09663 6.676 4.83663 6.748 4.58863C6.812 4.34063 6.904 4.12463 7.024 3.94063C7.144 3.74863 7.288 3.60463 7.456 3.50863C7.624 3.40463 7.808 3.35263 8.008 3.35263C8.248 3.35263 8.436 3.42063 8.572 3.55663C8.708 3.69263 8.776 3.86863 8.776 4.08463C8.776 4.30063 8.716 4.48063 8.596 4.62463C8.476 4.76863 8.304 4.84063 8.08 4.84063C7.872 4.84063 7.704 4.78063 7.576 4.66063C7.44 4.54063 7.352 4.40063 7.312 4.24063C7.192 4.31263 7.092 4.44063 7.012 4.62463C6.924 4.80063 6.88 4.99263 6.88 5.20063C6.88 5.41663 6.936 5.62463 7.048 5.82463C7.16 6.01663 7.332 6.18863 7.564 6.34063C7.796 6.49263 8.096 6.61663 8.464 6.71263C8.832 6.80063 9.276 6.84463 9.796 6.84463C10.468 6.84463 11.004 6.76863 11.404 6.61663C11.796 6.45663 12.076 6.24863 12.244 5.99263C12.412 5.73663 12.496 5.46063 12.496 5.16463C12.496 4.97263 12.46 4.77663 12.388 4.57663C12.316 4.36863 12.196 4.17263 12.028 3.98863C11.86 3.79663 11.632 3.62863 11.344 3.48463L11.428 3.25663C11.692 3.34463 11.96 3.48463 12.232 3.67663C12.504 3.86063 12.728 4.10463 12.904 4.40863C13.08 4.71263 13.168 5.08463 13.168 5.52463C13.168 6.02863 13.044 6.48463 12.796 6.89263C12.548 7.30063 12.188 7.62463 11.716 7.86463C11.236 8.10463 10.652 8.22463 9.964 8.22463C9.292 8.22463 8.708 8.10463 8.212 7.86463C7.708 7.61663 7.32 7.27663 7.048 6.84463C6.776 6.41263 6.64 5.92063 6.64 5.36863Z" fill="#5E8698"/>
<path d="M31.72 27V26.36C32.4453 26.3173 32.9893 26.232 33.352 26.104C33.736 25.976 33.992 25.72 34.12 25.336C34.248 24.952 34.312 24.376 34.312 23.608V7.736C34.312 6.94666 34.248 6.37067 34.12 6.008C33.992 5.624 33.736 5.368 33.352 5.24C32.9893 5.09067 32.4453 5.00533 31.72 4.984V4.344C32.2107 4.36533 32.8293 4.38667 33.576 4.408C34.3227 4.42933 35.0587 4.44 35.784 4.44C36.616 4.44 37.3947 4.42933 38.12 4.408C38.8453 4.38667 39.432 4.36533 39.88 4.344V4.984C39.1547 5.00533 38.6 5.09067 38.216 5.24C37.8533 5.368 37.608 5.624 37.48 6.008C37.352 6.37067 37.288 6.94666 37.288 7.736V23.608C37.288 24.376 37.352 24.952 37.48 25.336C37.608 25.72 37.8533 25.976 38.216 26.104C38.6 26.232 39.1547 26.3173 39.88 26.36V27C39.432 26.9573 38.8453 26.936 38.12 26.936C37.3947 26.9147 36.616 26.904 35.784 26.904C35.0587 26.904 34.3227 26.9147 33.576 26.936C32.8293 26.936 32.2107 26.9573 31.72 27ZM18.344 27V26.36C19.0693 26.3173 19.6133 26.232 19.976 26.104C20.36 25.976 20.616 25.72 20.744 25.336C20.872 24.952 20.936 24.376 20.936 23.608V7.736C20.936 6.94666 20.872 6.37067 20.744 6.008C20.616 5.624 20.36 5.368 19.976 5.24C19.6133 5.09067 19.0693 5.00533 18.344 4.984V4.344C18.792 4.36533 19.3787 4.38667 20.104 4.408C20.8293 4.42933 21.608 4.44 22.44 4.44C23.1867 4.44 23.9227 4.42933 24.648 4.408C25.3947 4.38667 26.0133 4.36533 26.504 4.344V4.984C25.7787 5.00533 25.224 5.09067 24.84 5.24C24.4773 5.368 24.232 5.624 24.104 6.008C23.976 6.37067 23.912 6.94666 23.912 7.736V23.608C23.912 24.376 23.976 24.952 24.104 25.336C24.232 25.72 24.4773 25.976 24.84 26.104C25.224 26.232 25.7787 26.3173 26.504 26.36V27C26.0133 26.9573 25.3947 26.936 24.648 26.936C23.9227 26.9147 23.1867 26.904 22.44 26.904C21.608 26.904 20.8293 26.9147 20.104 26.936C19.3787 26.936 18.792 26.9573 18.344 27ZM22.792 15.928V15.288H35.432V15.928H22.792ZM53.1548 4.184L60.9628 24.312C61.2828 25.1227 61.6454 25.6667 62.0508 25.944C62.4561 26.2 62.8294 26.3387 63.1708 26.36V27C62.7441 26.9573 62.2214 26.936 61.6028 26.936C60.9841 26.9147 60.3654 26.904 59.7468 26.904C58.9148 26.904 58.1361 26.9147 57.4108 26.936C56.6854 26.936 56.0988 26.9573 55.6508 27V26.36C56.7388 26.3173 57.4321 26.136 57.7308 25.816C58.0294 25.4747 57.9654 24.76 57.5388 23.672L51.5868 7.768L52.0988 7.352L46.5308 21.816C46.1894 22.6693 45.9868 23.3947 45.9228 23.992C45.8588 24.568 45.9121 25.0267 46.0828 25.368C46.2748 25.7093 46.5841 25.9547 47.0108 26.104C47.4588 26.2533 48.0134 26.3387 48.6748 26.36V27C48.0774 26.9573 47.4481 26.936 46.7868 26.936C46.1468 26.9147 45.5494 26.904 44.9948 26.904C44.4614 26.904 44.0028 26.9147 43.6188 26.936C43.2561 26.936 42.9148 26.9573 42.5948 27V26.36C43.0214 26.2533 43.4588 26.008 43.9068 25.624C44.3548 25.2187 44.7601 24.536 45.1228 23.576L52.6428 4.184C52.7281 4.184 52.8134 4.184 52.8988 4.184C52.9841 4.184 53.0694 4.184 53.1548 4.184ZM57.0588 17.784V18.424H47.5228L47.8428 17.784H57.0588ZM65.294 4.344C65.742 4.36533 66.3287 4.38667 67.054 4.408C67.7793 4.42933 68.494 4.44 69.198 4.44C70.2007 4.44 71.1607 4.42933 72.078 4.408C72.9953 4.38667 73.646 4.376 74.03 4.376C75.758 4.376 77.1873 4.62133 78.318 5.112C79.47 5.60267 80.3233 6.27467 80.878 7.128C81.454 7.96 81.742 8.89867 81.742 9.944C81.742 10.584 81.614 11.2667 81.358 11.992C81.102 12.7173 80.654 13.4 80.014 14.04C79.3953 14.68 78.542 15.2133 77.454 15.64C76.366 16.0453 74.99 16.248 73.326 16.248H70.254V15.608H73.006C74.5207 15.608 75.6727 15.3733 76.462 14.904C77.2727 14.4133 77.8167 13.7733 78.094 12.984C78.3927 12.1733 78.542 11.2773 78.542 10.296C78.542 8.61067 78.1367 7.30933 77.326 6.392C76.5367 5.45333 75.1713 4.984 73.23 4.984C72.2487 4.984 71.6087 5.16533 71.31 5.528C71.0113 5.89067 70.862 6.62667 70.862 7.736V23.608C70.862 24.376 70.926 24.952 71.054 25.336C71.182 25.72 71.4273 25.976 71.79 26.104C72.174 26.232 72.7287 26.3173 73.454 26.36V27C72.9633 26.9573 72.3447 26.936 71.598 26.936C70.8727 26.9147 70.1367 26.904 69.39 26.904C68.558 26.904 67.7793 26.9147 67.054 26.936C66.3287 26.936 65.742 26.9573 65.294 27V26.36C66.0193 26.3173 66.5633 26.232 66.926 26.104C67.31 25.976 67.566 25.72 67.694 25.336C67.822 24.952 67.886 24.376 67.886 23.608V7.736C67.886 6.94666 67.822 6.37067 67.694 6.008C67.566 5.624 67.31 5.368 66.926 5.24C66.5633 5.09067 66.0193 5.00533 65.294 4.984V4.344ZM70.382 15.704C71.534 15.7467 72.4407 15.8 73.102 15.864C73.7633 15.9067 74.2967 15.9493 74.702 15.992C75.1287 16.0347 75.534 16.088 75.918 16.152C77.3473 16.3867 78.3713 16.824 78.99 17.464C79.63 18.0827 80.0993 19.0533 80.398 20.376L81.198 23.64C81.4113 24.5787 81.6247 25.2613 81.838 25.688C82.0727 26.0933 82.4247 26.2853 82.894 26.264C83.2567 26.2427 83.5553 26.1253 83.79 25.912C84.046 25.6987 84.3127 25.4107 84.59 25.048L85.07 25.4C84.622 26.0613 84.1527 26.5733 83.662 26.936C83.1927 27.2773 82.5207 27.448 81.646 27.448C80.8567 27.448 80.1633 27.2133 79.566 26.744C78.9687 26.2747 78.5207 25.3573 78.222 23.992L77.518 20.792C77.326 19.8747 77.102 19.0853 76.846 18.424C76.6113 17.7413 76.27 17.208 75.822 16.824C75.3953 16.44 74.7553 16.248 73.902 16.248H70.446L70.382 15.704ZM105.997 4.344V4.984C105.591 5.06933 105.154 5.31467 104.685 5.72C104.237 6.12533 103.831 6.808 103.469 7.768L95.9485 27.16C95.9058 27.16 95.8632 27.16 95.8205 27.16C95.7778 27.16 95.7352 27.16 95.6925 27.16C95.6498 27.16 95.6072 27.16 95.5645 27.16C95.5218 27.16 95.4792 27.16 95.4365 27.16L87.6285 7.032C87.3085 6.22133 86.9458 5.688 86.5405 5.432C86.1352 5.15467 85.7618 5.00533 85.4205 4.984V4.344C85.8472 4.36533 86.3698 4.38667 86.9885 4.408C87.6285 4.42933 88.2472 4.44 88.8445 4.44C89.6765 4.44 90.4552 4.42933 91.1805 4.408C91.9058 4.38667 92.4925 4.36533 92.9405 4.344V4.984C92.2152 5.00533 91.6605 5.09067 91.2765 5.24C90.9138 5.38933 90.7112 5.656 90.6685 6.04C90.6472 6.40267 90.7752 6.94667 91.0525 7.672L97.0045 23.448L96.4925 23.992L102.061 9.528C102.509 8.376 102.722 7.48 102.701 6.84C102.679 6.17867 102.434 5.70933 101.965 5.432C101.495 5.15467 100.813 5.00533 99.9165 4.984V4.344C100.535 4.36533 101.165 4.38667 101.805 4.408C102.445 4.42933 103.042 4.44 103.597 4.44C104.151 4.44 104.61 4.42933 104.973 4.408C105.335 4.38667 105.677 4.36533 105.997 4.344ZM116.599 4.536C117.41 4.536 118.082 4.632 118.615 4.824C119.148 4.99467 119.586 5.21866 119.927 5.496C120.204 5.70933 120.428 5.944 120.599 6.2C120.77 6.456 120.898 6.712 120.983 6.968C121.068 7.224 121.111 7.46933 121.111 7.704C121.111 8.23733 120.919 8.65333 120.535 8.952C120.172 9.25067 119.767 9.4 119.319 9.4C118.892 9.4 118.508 9.26133 118.167 8.984C117.826 8.70667 117.655 8.312 117.655 7.8C117.655 7.33067 117.815 6.936 118.135 6.616C118.455 6.27467 118.86 6.08267 119.351 6.04C119.266 5.76267 118.999 5.528 118.551 5.336C118.124 5.12267 117.58 5.016 116.919 5.016C115.831 5.016 114.935 5.34667 114.231 6.008C113.548 6.648 113.207 7.58667 113.207 8.824C113.207 9.42133 113.314 10.0293 113.527 10.648C113.762 11.2667 114.199 11.8747 114.839 12.472C115.202 12.408 115.575 12.3653 115.959 12.344C116.343 12.3013 116.631 12.28 116.823 12.28C117.207 12.28 117.516 12.344 117.751 12.472C117.986 12.6 118.103 12.7813 118.103 13.016C118.103 13.208 118.018 13.3573 117.847 13.464C117.698 13.5707 117.484 13.624 117.207 13.624C116.802 13.624 116.375 13.5387 115.927 13.368C115.479 13.176 115.127 13.0267 114.871 12.92C113.634 13.2827 112.631 13.88 111.863 14.712C111.095 15.5227 110.711 16.6747 110.711 18.168C110.711 19.64 111.095 20.888 111.863 21.912C112.631 22.936 113.655 23.7253 114.935 24.28C116.236 24.8133 117.687 25.08 119.287 25.08C120.418 25.08 121.484 24.952 122.487 24.696C123.511 24.4187 124.407 24.024 125.175 23.512C125.964 23 126.583 22.392 127.031 21.688C127.479 20.9627 127.703 20.1413 127.703 19.224C127.703 18.8187 127.618 18.3067 127.447 17.688C127.276 17.048 126.924 16.4293 126.391 15.832C125.858 15.2133 125.036 14.7333 123.927 14.392L124.311 14.072C125.868 14.5413 126.978 15.2987 127.639 16.344C128.3 17.368 128.631 18.52 128.631 19.8C128.631 21.08 128.247 22.3067 127.479 23.48C126.711 24.6533 125.602 25.6133 124.151 26.36C122.7 27.0853 120.94 27.448 118.871 27.448C117.484 27.448 116.162 27.2667 114.903 26.904C113.666 26.5413 112.567 26.0187 111.607 25.336C110.647 24.632 109.89 23.7893 109.335 22.808C108.78 21.8267 108.503 20.7173 108.503 19.48C108.503 18.328 108.727 17.3467 109.175 16.536C109.623 15.704 110.178 15.0213 110.839 14.488C111.5 13.9547 112.162 13.5493 112.823 13.272C113.484 12.9733 114.018 12.7707 114.423 12.664C113.719 12.344 113.122 11.9707 112.631 11.544C112.162 11.096 111.799 10.616 111.543 10.104C111.308 9.57067 111.191 9.048 111.191 8.536C111.191 8.024 111.308 7.53333 111.543 7.064C111.778 6.57333 112.119 6.136 112.567 5.752C113.015 5.368 113.57 5.06933 114.231 4.856C114.914 4.64267 115.703 4.536 116.599 4.536ZM128.247 3.896C129.57 3.896 130.679 4.28 131.575 5.048C132.471 5.79467 132.919 6.85067 132.919 8.216C132.919 8.94133 132.78 9.592 132.503 10.168C132.247 10.7227 131.884 11.2133 131.415 11.64C130.967 12.0667 130.455 12.4187 129.879 12.696C129.388 12.9307 128.738 13.1867 127.927 13.464C127.138 13.7413 126.284 14.0187 125.367 14.296C124.471 14.5733 123.607 14.8507 122.775 15.128C121.964 15.384 121.303 15.608 120.791 15.8C120.002 16.0987 119.33 16.472 118.775 16.92C118.242 17.3467 117.975 17.9013 117.975 18.584C117.975 19.1387 118.135 19.608 118.455 19.992C118.775 20.376 119.159 20.664 119.607 20.856C120.076 21.048 120.514 21.144 120.919 21.144C121.111 21.144 121.346 21.1227 121.623 21.08C121.922 21.016 122.188 20.9307 122.423 20.824C122.658 20.7173 122.796 20.5893 122.839 20.44C122.498 20.376 122.156 20.2267 121.815 19.992C121.495 19.736 121.335 19.3413 121.335 18.808C121.335 18.296 121.506 17.8907 121.847 17.592C122.188 17.2933 122.604 17.144 123.095 17.144C123.607 17.144 124.012 17.304 124.311 17.624C124.631 17.944 124.791 18.36 124.791 18.872C124.791 19.4693 124.588 19.9813 124.183 20.408C123.799 20.8133 123.308 21.1227 122.711 21.336C122.135 21.528 121.559 21.624 120.983 21.624C120.386 21.624 119.778 21.496 119.159 21.24C118.54 20.984 118.028 20.5893 117.623 20.056C117.218 19.5013 117.015 18.776 117.015 17.88C117.015 17.1333 117.175 16.472 117.495 15.896C117.836 15.32 118.338 14.808 118.999 14.36C119.66 13.912 120.471 13.528 121.431 13.208C122.071 12.9947 122.85 12.76 123.767 12.504C124.684 12.248 125.623 11.9707 126.583 11.672C127.564 11.3733 128.45 11.0427 129.239 10.68C130.306 10.1893 131.031 9.688 131.415 9.176C131.799 8.664 131.991 8.14133 131.991 7.608C131.991 6.98933 131.82 6.44533 131.479 5.976C131.138 5.48533 130.679 5.10133 130.103 4.824C129.548 4.52533 128.94 4.376 128.279 4.376C128.023 4.376 127.81 4.39733 127.639 4.44C127.468 4.48267 127.362 4.55733 127.319 4.664C127.618 4.81333 127.842 5.02667 127.991 5.304C128.14 5.58133 128.215 5.85867 128.215 6.136C128.215 6.584 128.034 6.95733 127.671 7.256C127.33 7.55467 126.914 7.704 126.423 7.704C126.018 7.704 125.634 7.576 125.271 7.32C124.908 7.04267 124.727 6.63733 124.727 6.104C124.727 5.54933 124.908 5.112 125.271 4.792C125.655 4.472 126.114 4.248 126.647 4.12C127.202 3.97066 127.735 3.896 128.247 3.896ZM143.348 3.992C144.415 3.992 145.226 4.12 145.78 4.376C146.335 4.61067 146.826 4.87733 147.252 5.176C147.508 5.32533 147.711 5.44267 147.86 5.528C148.031 5.592 148.191 5.624 148.34 5.624C148.554 5.624 148.703 5.50667 148.788 5.272C148.895 5.03733 148.98 4.68533 149.044 4.216H149.78C149.759 4.57867 149.727 5.016 149.684 5.528C149.663 6.01867 149.642 6.68 149.62 7.512C149.62 8.32267 149.62 9.4 149.62 10.744H148.884C148.82 9.72 148.596 8.73867 148.212 7.8C147.828 6.86133 147.263 6.09333 146.516 5.496C145.791 4.89867 144.831 4.6 143.636 4.6C142.506 4.6 141.567 4.94133 140.82 5.624C140.095 6.30667 139.732 7.20267 139.732 8.312C139.732 9.272 139.978 10.0827 140.468 10.744C140.959 11.384 141.61 11.9707 142.42 12.504C143.252 13.016 144.148 13.5707 145.108 14.168C146.218 14.8507 147.199 15.5333 148.052 16.216C148.927 16.8773 149.61 17.6133 150.1 18.424C150.612 19.2347 150.868 20.216 150.868 21.368C150.868 22.7333 150.559 23.864 149.94 24.76C149.322 25.656 148.5 26.328 147.476 26.776C146.452 27.224 145.322 27.448 144.084 27.448C142.954 27.448 142.058 27.32 141.396 27.064C140.735 26.808 140.17 26.5413 139.7 26.264C139.231 25.9653 138.868 25.816 138.612 25.816C138.399 25.816 138.239 25.9333 138.132 26.168C138.047 26.4027 137.972 26.7547 137.908 27.224H137.172C137.215 26.776 137.236 26.2533 137.236 25.656C137.258 25.0373 137.268 24.2373 137.268 23.256C137.29 22.2747 137.3 21.0373 137.3 19.544H138.036C138.122 20.824 138.356 22.0187 138.74 23.128C139.146 24.2373 139.754 25.1333 140.564 25.816C141.396 26.4773 142.495 26.808 143.86 26.808C144.564 26.808 145.226 26.6693 145.844 26.392C146.484 26.0933 147.007 25.6347 147.412 25.016C147.818 24.376 148.02 23.5547 148.02 22.552C148.02 21.6773 147.807 20.92 147.38 20.28C146.975 19.6187 146.399 19.0107 145.652 18.456C144.906 17.88 144.031 17.2933 143.028 16.696C142.026 16.0773 141.087 15.448 140.212 14.808C139.338 14.168 138.634 13.432 138.1 12.6C137.588 11.7467 137.332 10.7227 137.332 9.528C137.332 8.26933 137.61 7.23467 138.164 6.424C138.74 5.592 139.487 4.984 140.404 4.6C141.322 4.19467 142.303 3.992 143.348 3.992ZM172.982 4.344C172.896 5.15467 172.832 5.944 172.79 6.712C172.768 7.45867 172.758 8.03467 172.758 8.44C172.758 8.952 172.768 9.432 172.79 9.88C172.811 10.328 172.832 10.7227 172.854 11.064H172.118C171.968 9.57067 171.766 8.39733 171.51 7.544C171.254 6.66933 170.806 6.04 170.166 5.656C169.526 5.272 168.534 5.08 167.19 5.08H165.462V23.288C165.462 24.1413 165.536 24.7813 165.686 25.208C165.856 25.6347 166.176 25.9227 166.646 26.072C167.115 26.2213 167.798 26.3173 168.694 26.36V27C168.139 26.9573 167.435 26.936 166.582 26.936C165.728 26.9147 164.864 26.904 163.99 26.904C163.03 26.904 162.123 26.9147 161.27 26.936C160.438 26.936 159.766 26.9573 159.254 27V26.36C160.15 26.3173 160.832 26.2213 161.302 26.072C161.771 25.9227 162.08 25.6347 162.23 25.208C162.4 24.7813 162.486 24.1413 162.486 23.288V5.08H160.758C159.435 5.08 158.443 5.272 157.782 5.656C157.142 6.04 156.694 6.66933 156.438 7.544C156.182 8.39733 155.979 9.57067 155.83 11.064H155.094C155.136 10.7227 155.158 10.328 155.158 9.88C155.179 9.432 155.19 8.952 155.19 8.44C155.19 8.03467 155.168 7.45867 155.126 6.712C155.104 5.944 155.051 5.15467 154.966 4.344C155.862 4.36533 156.832 4.38667 157.878 4.408C158.944 4.42933 160.011 4.44 161.078 4.44C162.144 4.44 163.115 4.44 163.99 4.44C164.864 4.44 165.824 4.44 166.87 4.44C167.936 4.44 169.003 4.42933 170.07 4.408C171.136 4.38667 172.107 4.36533 172.982 4.344Z" fill="#04293A"/>
</svg>
