<svg width="25" height="23" viewBox="0 0 25 23" fill="none" xmlns="http://www.w3.org/2000/svg">
<path d="M6.93735 4.68639C6.69244 4.91031 6.50485 5.18107 6.38808 5.4792C6.27131 5.77732 6.22826 6.09541 6.26203 6.41056C6.2958 6.72572 6.40554 7.03012 6.58337 7.30186C6.7612 7.5736 7.00269 7.80593 7.29047 7.98214L10.0499 9.67215L0.904482 18.0336C0.325352 18.5631 0 19.2813 0 20.0301C0 20.7789 0.325352 21.497 0.904482 22.0265C1.48361 22.556 2.26908 22.8535 3.08809 22.8535C3.90711 22.8535 4.69258 22.556 5.27171 22.0265L14.4171 13.6665L16.2656 16.1893C16.4583 16.4525 16.7124 16.6733 17.0096 16.8358C17.3068 16.9984 17.6398 17.0988 17.9845 17.1296C18.3292 17.1605 18.6771 17.1212 19.0031 17.0144C19.3292 16.9076 19.6254 16.7361 19.8703 16.5122L24.3078 12.4536C24.548 12.234 24.7331 11.9694 24.8504 11.6779C24.9676 11.3865 25.0142 11.0752 24.9868 10.7657C24.9595 10.4562 24.8589 10.1558 24.692 9.88529C24.5251 9.61483 24.2959 9.38076 24.0203 9.19929L18.8437 5.78783C18.7758 5.74302 18.7161 5.68852 18.6671 5.6264L14.9374 0.890646C14.7389 0.638649 14.4829 0.429104 14.1871 0.27652C13.8913 0.123935 13.5627 0.031958 13.2242 0.00695653C12.8856 -0.0180449 12.5452 0.0245266 12.2264 0.131724C11.9076 0.238921 11.6182 0.408182 11.378 0.627787L6.94047 4.68639H6.93735ZM13.5312 12.4565L4.16701 21.0165C3.87726 21.2605 3.49556 21.3927 3.10172 21.3853C2.70788 21.378 2.33239 21.2318 2.05374 20.9772C1.7751 20.7226 1.61487 20.3794 1.60657 20.0193C1.59826 19.6593 1.74252 19.3102 2.00918 19.0451L11.3733 10.4822L12.5358 11.195C12.6205 11.2469 12.6932 11.3134 12.7499 11.3907L13.5312 12.455V12.4565ZM8.15923 6.79498C8.06323 6.73632 7.98264 6.65894 7.92327 6.5684C7.8639 6.47786 7.82721 6.37641 7.81586 6.27135C7.8045 6.1663 7.81876 6.06025 7.8576 5.96083C7.89644 5.86141 7.9589 5.7711 8.04048 5.6964L12.4811 1.63922C12.5612 1.56583 12.6577 1.50923 12.764 1.47336C12.8704 1.43749 12.984 1.42321 13.097 1.4315C13.2099 1.43979 13.3196 1.47046 13.4183 1.52138C13.517 1.5723 13.6025 1.64224 13.6687 1.72637L14.5546 2.85495L9.40612 7.55785L8.16079 6.79355L8.15923 6.79498ZM10.728 8.36928L15.478 4.02639L17.3952 6.46069C17.5426 6.64767 17.722 6.81168 17.9265 6.94641L20.5922 8.70214L15.8405 13.045L14.0468 10.5964C13.8765 10.3648 13.6583 10.1659 13.4046 10.0107L10.7296 8.36785L10.728 8.36928ZM21.875 9.54786L23.1062 10.3579C23.1982 10.4184 23.2748 10.4965 23.3304 10.5867C23.3861 10.677 23.4197 10.7773 23.4287 10.8806C23.4378 10.9839 23.4222 11.0877 23.383 11.185C23.3437 11.2822 23.2818 11.3704 23.2015 11.4436L18.764 15.5008C18.6824 15.5757 18.5836 15.6331 18.4748 15.6689C18.366 15.7047 18.2498 15.7179 18.1347 15.7077C18.0196 15.6974 17.9084 15.6639 17.8092 15.6096C17.7099 15.5553 17.6251 15.4815 17.5609 15.3936L16.7265 14.255L21.8765 9.54786H21.875ZM15.6249 20.7108C15.6249 20.5214 15.7072 20.3397 15.8537 20.2057C16.0003 20.0718 16.199 19.9965 16.4062 19.9965H21.0937C21.3009 19.9965 21.4996 20.0718 21.6461 20.2057C21.7927 20.3397 21.875 20.5214 21.875 20.7108C21.875 20.9003 21.7927 21.0819 21.6461 21.2159C21.4996 21.3499 21.3009 21.4251 21.0937 21.4251H24.2187C24.4259 21.4251 24.6247 21.5004 24.7712 21.6343C24.9177 21.7683 25 21.95 25 22.1394C25 22.3288 24.9177 22.5105 24.7712 22.6445C24.6247 22.7784 24.4259 22.8537 24.2187 22.8537H13.2812C13.0739 22.8537 12.8752 22.7784 12.7287 22.6445C12.5822 22.5105 12.4999 22.3288 12.4999 22.1394C12.4999 21.95 12.5822 21.7683 12.7287 21.6343C12.8752 21.5004 13.0739 21.4251 13.2812 21.4251H16.4062C16.199 21.4251 16.0003 21.3499 15.8537 21.2159C15.7072 21.0819 15.6249 20.9003 15.6249 20.7108Z" fill="#04293A"/>
</svg>
