<svg width="50" height="46" viewBox="0 0 50 46" fill="none" xmlns="http://www.w3.org/2000/svg">
<path d="M13.8747 9.37279C13.3849 9.82062 13.0097 10.3621 12.7762 10.9584C12.5426 11.5546 12.4565 12.1908 12.5241 12.8211C12.5916 13.4514 12.8111 14.0602 13.1667 14.6037C13.5224 15.1472 14.0054 15.6119 14.5809 15.9643L20.0997 19.3443L1.80896 36.0673C0.650704 37.1263 0 38.5626 0 40.0602C0 41.5578 0.650704 42.9941 1.80896 44.0531C2.96722 45.1121 4.53816 45.707 6.17619 45.707C7.81422 45.707 9.38515 45.1121 10.5434 44.0531L28.8342 27.3329L32.5311 32.3787C32.9165 32.9049 33.4248 33.3465 34.0192 33.6717C34.6136 33.9969 35.2795 34.1975 35.9689 34.2593C36.6583 34.321 37.3541 34.2423 38.0063 34.0288C38.6584 33.8153 39.2507 33.4722 39.7405 33.0244L48.6156 24.9072C49.096 24.4681 49.4663 23.9387 49.7008 23.3559C49.9352 22.773 50.0284 22.1504 49.9737 21.5314C49.919 20.9123 49.7178 20.3115 49.384 19.7706C49.0502 19.2297 48.5919 18.7615 48.0406 18.3986L37.6874 11.5757C37.5515 11.486 37.4323 11.377 37.3343 11.2528L29.8748 1.78129C29.4779 1.2773 28.9658 0.858208 28.3742 0.553039C27.7826 0.247871 27.1254 0.063916 26.4483 0.0139131C25.7712 -0.0360899 25.0904 0.0490532 24.4528 0.263447C23.8153 0.477842 23.2363 0.816364 22.756 1.25557L13.8809 9.37279H13.8747ZM27.0623 24.9129L8.33402 42.0331C7.75452 42.5211 6.99113 42.7853 6.20345 42.7707C5.41577 42.756 4.66478 42.4635 4.10749 41.9544C3.5502 41.4452 3.22975 40.7588 3.21314 40.0387C3.19653 39.3185 3.48504 38.6204 4.01836 38.0902L22.7466 20.9643L25.0717 22.39C25.2409 22.4937 25.3864 22.6267 25.4998 22.7815L27.0623 24.9101V24.9129ZM16.3185 13.59C16.1265 13.4726 15.9653 13.3179 15.8465 13.1368C15.7278 12.9557 15.6544 12.7528 15.6317 12.5427C15.609 12.3326 15.6375 12.1205 15.7152 11.9217C15.7929 11.7228 15.9178 11.5422 16.081 11.3928L24.9623 3.27845C25.1223 3.13166 25.3154 3.01847 25.5281 2.94673C25.7407 2.87498 25.968 2.84641 26.1939 2.863C26.4199 2.87958 26.6392 2.94092 26.8366 3.04275C27.0341 3.14459 27.2049 3.28449 27.3373 3.45274L29.1092 5.7099L18.8122 15.1157L16.3216 13.5871L16.3185 13.59ZM21.456 16.7386L30.9561 8.05277L34.7905 12.9214C35.0852 13.2953 35.444 13.6234 35.853 13.8928L41.1843 17.4043L31.6811 26.0901L28.0936 21.1929C27.753 20.7297 27.3167 20.3317 26.8092 20.0214L21.4591 16.7357L21.456 16.7386ZM43.7499 19.0957L46.2125 20.7157C46.3965 20.8368 46.5495 20.993 46.6609 21.1735C46.7723 21.354 46.8394 21.5545 46.8575 21.7611C46.8756 21.9677 46.8444 22.1755 46.7659 22.3699C46.6875 22.5644 46.5636 22.7409 46.4031 22.8872L37.528 31.0015C37.3648 31.1514 37.1672 31.2662 36.9496 31.3378C36.7319 31.4094 36.4996 31.4358 36.2694 31.4153C36.0392 31.3948 35.8168 31.3279 35.6183 31.2192C35.4199 31.1106 35.2503 30.9631 35.1217 30.7873L33.453 28.5101L43.7531 19.0957H43.7499ZM31.2498 41.4216C31.2498 41.0427 31.4145 40.6794 31.7075 40.4115C32.0005 40.1436 32.3979 39.993 32.8124 39.993H42.1874C42.6018 39.993 42.9993 40.1436 43.2923 40.4115C43.5853 40.6794 43.7499 41.0427 43.7499 41.4216C43.7499 41.8005 43.5853 42.1639 43.2923 42.4318C42.9993 42.6997 42.6018 42.8502 42.1874 42.8502H48.4375C48.8519 42.8502 49.2493 43.0007 49.5424 43.2686C49.8354 43.5365 50 43.8999 50 44.2788C50 44.6577 49.8354 45.021 49.5424 45.289C49.2493 45.5569 48.8519 45.7074 48.4375 45.7074H26.5623C26.1479 45.7074 25.7505 45.5569 25.4574 45.289C25.1644 45.021 24.9998 44.6577 24.9998 44.2788C24.9998 43.8999 25.1644 43.5365 25.4574 43.2686C25.7505 43.0007 26.1479 42.8502 26.5623 42.8502H32.8124C32.3979 42.8502 32.0005 42.6997 31.7075 42.4318C31.4145 42.1639 31.2498 41.8005 31.2498 41.4216Z" fill="#04293A"/>
</svg>
