<svg width="40" height="38" viewBox="0 0 40 38" fill="none" xmlns="http://www.w3.org/2000/svg">
<ellipse cx="20" cy="19.2093" rx="16" ry="14.8837" fill="#FCFCFC"/>
<path d="M20 9.90698C18.7639 9.90698 17.5555 10.248 16.5277 10.8868C15.4999 11.5257 14.6988 12.4337 14.2258 13.496C13.7527 14.5584 13.6289 15.7274 13.8701 16.8552C14.1113 17.983 14.7065 19.0189 15.5806 19.832C16.4547 20.6451 17.5683 21.1988 18.7807 21.4232C19.9931 21.6475 21.2497 21.5324 22.3918 21.0923C23.5338 20.6523 24.5099 19.9071 25.1967 18.951C25.8834 17.9949 26.25 16.8708 26.25 15.7209C26.25 14.179 25.5915 12.7002 24.4194 11.6098C23.2473 10.5195 21.6576 9.90698 20 9.90698ZM20 19.2093C19.2583 19.2093 18.5333 19.0047 17.9166 18.6214C17.2999 18.2381 16.8193 17.6933 16.5355 17.0559C16.2516 16.4185 16.1774 15.7171 16.3221 15.0404C16.4668 14.3637 16.8239 13.7421 17.3484 13.2543C17.8728 12.7664 18.541 12.4342 19.2684 12.2996C19.9958 12.165 20.7498 12.2341 21.4351 12.4981C22.1203 12.7621 22.706 13.2092 23.118 13.7829C23.5301 14.3566 23.75 15.031 23.75 15.7209C23.749 16.6458 23.3536 17.5326 22.6506 18.1866C21.9475 18.8406 20.9943 19.2084 20 19.2093Z" fill="#04293A"/>
<path d="M20 2.93018C16.5388 2.93018 13.1554 3.88493 10.2775 5.67369C7.39967 7.46246 5.15665 10.0049 3.83212 12.9795C2.50758 15.9541 2.16102 19.2273 2.83627 22.3851C3.51151 25.543 5.17822 28.4436 7.62564 30.7203C10.0731 32.997 13.1913 34.5474 16.5859 35.1755C19.9806 35.8036 23.4993 35.4813 26.697 34.2491C29.8947 33.017 32.6278 30.9305 34.5507 28.2534C36.4737 25.5763 37.5 22.4289 37.5 19.2092C37.4947 14.8933 35.6493 10.7555 32.3685 7.70364C29.0878 4.65179 24.6397 2.9351 20 2.93018ZM12.5 31.2755V29.6744C12.501 28.7495 12.8964 27.8627 13.5995 27.2087C14.3025 26.5547 15.2558 26.1869 16.25 26.186H23.75C24.7443 26.1869 25.6975 26.5547 26.4006 27.2087C27.1036 27.8627 27.499 28.7495 27.5 29.6744V31.2755C25.224 32.5118 22.6357 33.1633 20 33.1633C17.3644 33.1633 14.776 32.5118 12.5 31.2755ZM29.99 29.5883C29.9651 28.0631 29.2971 26.6081 28.1299 25.5367C26.9627 24.4653 25.3898 23.8633 23.75 23.8604H16.25C14.6102 23.8633 13.0373 24.4653 11.8701 25.5367C10.7029 26.6081 10.0349 28.0631 10.01 29.5883C7.74321 27.7055 6.14467 25.2265 5.42605 22.4798C4.70743 19.733 4.90263 16.848 5.98581 14.2068C7.06898 11.5655 8.98903 9.29258 11.4917 7.68897C13.9944 6.08537 16.9617 5.22672 20.0006 5.22672C23.0396 5.22672 26.0069 6.08537 28.5095 7.68897C31.0122 9.29258 32.9323 11.5655 34.0155 14.2068C35.0986 16.848 35.2938 19.733 34.5752 22.4798C33.8566 25.2265 32.2581 27.7055 29.9913 29.5883H29.99Z" fill="#04293A"/>
</svg>
